<svg xmlns="http://www.w3.org/2000/svg" xmlns:xlink="http://www.w3.org/1999/xlink" viewBox="0 0 143.8 143.81"><defs><style>.cls-1{fill:url(#linear-gradient);}.cls-2{fill:#fff;}</style><linearGradient id="linear-gradient" x1="28.85" y1="114.96" x2="123.38" y2="20.43" gradientUnits="userSpaceOnUse"><stop offset="0" stop-color="#ffc153"/><stop offset="0.05" stop-color="#f89554"/><stop offset="0.13" stop-color="#ee5755"/><stop offset="0.19" stop-color="#e83156"/><stop offset="0.22" stop-color="#e62256"/><stop offset="0.36" stop-color="#d0257e"/><stop offset="0.5" stop-color="#bf289d"/><stop offset="0.58" stop-color="#b829a9"/><stop offset="1" stop-color="#5d3fd2"/></linearGradient></defs><title>instagram</title><g id="Layer_2" data-name="Layer 2"><g id="OBJECTS"><path class="cls-1" d="M71.9,0a71.91,71.91,0,1,0,71.9,71.91A71.9,71.9,0,0,0,71.9,0Z"/><path class="cls-2" d="M71.9,97.58A25.68,25.68,0,1,0,46.22,71.91,25.69,25.69,0,0,0,71.9,97.58ZM52.45,71.91A19.45,19.45,0,1,1,71.9,91.36,19.47,19.47,0,0,1,52.45,71.91Z"/><path class="cls-2" d="M97.51,114.55H46.29A17.45,17.45,0,0,1,28.86,97.12V46.69A17.45,17.45,0,0,1,46.29,29.26H97.51a17.45,17.45,0,0,1,17.43,17.43V97.12A17.45,17.45,0,0,1,97.51,114.55ZM46.29,35.62A11.08,11.08,0,0,0,35.22,46.69V97.12a11.08,11.08,0,0,0,11.07,11.07H97.51a11.08,11.08,0,0,0,11.07-11.07V46.69A11.08,11.08,0,0,0,97.51,35.62Z"/><path class="cls-2" d="M97.92,43.3A4.06,4.06,0,1,0,102,47.36,4.06,4.06,0,0,0,97.92,43.3Z"/></g></g></svg>