<svg xmlns="http://www.w3.org/2000/svg" viewBox="0 0 143.62 143.62"><defs><style>.cls-1{fill:#0076b4;}.cls-2{fill:#fff;}</style></defs><title>Linkedin</title><g id="Layer_2" data-name="Layer 2"><g id="OBJECTS"><path id="_Path_" data-name="&lt;Path&gt;" class="cls-1" d="M143.62,71.81a71.81,71.81,0,1,0-71.81,71.81A71.81,71.81,0,0,0,143.62,71.81Z"/><rect class="cls-2" x="37.62" y="54.28" width="16.62" height="47.51"/><path class="cls-2" d="M45.93,30.53a8.32,8.32,0,1,0,8.31,8.31A8.33,8.33,0,0,0,45.93,30.53Z"/><path class="cls-2" d="M108.88,68.88c-1.12-9-5.6-14.6-17.71-14.6-8.59,0-12,1.35-14,5.09h0V54.28H63.74v47.51H77.59V76.92c0-6.2,1.17-10.89,8.85-10.89s8.17,5.77,8.17,11.3v24.46h14.27S109.14,71,108.88,68.88Z"/></g></g></svg>