<svg xmlns="http://www.w3.org/2000/svg" viewBox="0 0 334.14 104.05"><defs><style>.cls-1{fill:#9c182f;}</style></defs><title>Poweredby</title><g id="Layer_2" data-name="Layer 2"><g id="Layer_1-2" data-name="Layer 1"><path class="cls-1" d="M331.71,67.9a52.82,52.82,0,0,0,2.43-16.24C334,23,311.13,0,282.93,0s-51.21,23.29-51.21,52,22.66,51.83,50.85,52a50.38,50.38,0,0,0,16-2.46,47.67,47.67,0,0,1,35.58,2.47h0A49.94,49.94,0,0,1,331.71,67.9Zm-66.59,2.58h-8.39V33.57h8.39Zm44,0h-8.39V48.38l-7.88,16.07h-4.5l-7.88-16.07v22.1h-8.4V33.57h9.11l9.42,19.28,9.47-19.28h9.05Z"/><path class="cls-1" d="M0,67.78V41.09H11.13a7.35,7.35,0,0,1,3.25.73,8.21,8.21,0,0,1,2.56,2,9.38,9.38,0,0,1,1.67,2.74,8.43,8.43,0,0,1,.6,3.11,9.36,9.36,0,0,1-.56,3.19,9,9,0,0,1-1.6,2.75,7.74,7.74,0,0,1-2.48,1.91,7.15,7.15,0,0,1-3.22.72h-8v9.58ZM3.38,55.19h7.79a4.12,4.12,0,0,0,1.9-.43,4.28,4.28,0,0,0,1.44-1.21,5.7,5.7,0,0,0,.94-1.78,6.62,6.62,0,0,0,.34-2.14,5.88,5.88,0,0,0-1.45-4,4.74,4.74,0,0,0-1.54-1.17,4.42,4.42,0,0,0-1.86-.41H3.38Z"/><path class="cls-1" d="M30.9,68.16a9.7,9.7,0,0,1-4-.83,9.87,9.87,0,0,1-3.12-2.21,10.16,10.16,0,0,1-2-3.24,10.87,10.87,0,0,1,0-7.78,10.23,10.23,0,0,1,2-3.23,9.63,9.63,0,0,1,7.12-3,9.75,9.75,0,0,1,4,.83,9.61,9.61,0,0,1,3.14,2.22,10.23,10.23,0,0,1,2,3.23A10.45,10.45,0,0,1,40.83,58a10.75,10.75,0,0,1-.71,3.87A9.78,9.78,0,0,1,35,67.33,9.74,9.74,0,0,1,30.9,68.16ZM24.4,58.05a7.76,7.76,0,0,0,.51,2.85,7.29,7.29,0,0,0,1.39,2.3,6.67,6.67,0,0,0,2.07,1.54,6,6,0,0,0,5.07,0,6.77,6.77,0,0,0,2.09-1.56,7.41,7.41,0,0,0,1.41-2.33A8,8,0,0,0,37.45,58a7.9,7.9,0,0,0-.51-2.84,7.41,7.41,0,0,0-1.41-2.33,6.77,6.77,0,0,0-2.09-1.56,5.9,5.9,0,0,0-2.54-.56,5.62,5.62,0,0,0-2.53.58,6.79,6.79,0,0,0-2.07,1.58,7.44,7.44,0,0,0-1.39,2.33A8,8,0,0,0,24.4,58.05Z"/><path class="cls-1" d="M68.73,48.16h3.19L63.58,67.78H60.83L56.88,58.2,53,67.78H50.23L41.88,48.16H45l6.77,16.35,3.31-8.15L51.73,48.2h2.75l2.4,6.28,2.41-6.28H62l-3.35,8.16L62,64.51Z"/><path class="cls-1" d="M83.73,68.16a10,10,0,0,1-4.06-.81,9.6,9.6,0,0,1-3.16-2.2,9.92,9.92,0,0,1-2.05-3.25A10.59,10.59,0,0,1,73.73,58a10.45,10.45,0,0,1,.73-3.91,9.93,9.93,0,0,1,2.07-3.23,9.79,9.79,0,0,1,3.18-2.2,9.94,9.94,0,0,1,4.06-.81,9.73,9.73,0,0,1,4,.83,9.54,9.54,0,0,1,3.1,2.2,9.66,9.66,0,0,1,2,3.19,10.42,10.42,0,0,1,.7,3.78c0,.28,0,.53,0,.75a3,3,0,0,1-.06.53H77.22a7.61,7.61,0,0,0,.68,2.67,7.06,7.06,0,0,0,1.47,2.07,6.7,6.7,0,0,0,2,1.35,6,6,0,0,0,2.42.49,6.26,6.26,0,0,0,1.77-.25,7.86,7.86,0,0,0,1.61-.65,5.65,5.65,0,0,0,1.34-1,4.09,4.09,0,0,0,.88-1.35l2.86.79a7.45,7.45,0,0,1-1.33,2,9.1,9.1,0,0,1-2,1.56,10.53,10.53,0,0,1-5.28,1.41Zm6.73-11.5a7.15,7.15,0,0,0-.7-2.58,7,7,0,0,0-1.46-2,6.81,6.81,0,0,0-2-1.3,6.8,6.8,0,0,0-5,0,6.34,6.34,0,0,0-2,1.32,6.5,6.5,0,0,0-1.43,2,7.16,7.16,0,0,0-.66,2.56Z"/><path class="cls-1" d="M107.56,51.05a8.55,8.55,0,0,0-4.38,1.28,6.5,6.5,0,0,0-2.68,3.35v12.1H97.19V48.16h3.08v4.55a10,10,0,0,1,2.67-3.37A5.52,5.52,0,0,1,106.47,48h.64a1.92,1.92,0,0,1,.45,0Z"/><path class="cls-1" d="M119.56,68.16a9.94,9.94,0,0,1-4.06-.81,9.6,9.6,0,0,1-3.16-2.2,9.92,9.92,0,0,1-2-3.25,10.59,10.59,0,0,1-.73-3.93,10.45,10.45,0,0,1,.73-3.91,9.83,9.83,0,0,1,9.3-6.24,9.74,9.74,0,0,1,4,.83,9.54,9.54,0,0,1,3.1,2.2,9.66,9.66,0,0,1,2,3.19,10.42,10.42,0,0,1,.7,3.78c0,.28,0,.53,0,.75a3,3,0,0,1-.06.53H113.05a7.61,7.61,0,0,0,.68,2.67,6.88,6.88,0,0,0,1.47,2.07,6.7,6.7,0,0,0,2,1.35,6,6,0,0,0,2.42.49,6.26,6.26,0,0,0,1.77-.25,7.86,7.86,0,0,0,1.61-.65,5.86,5.86,0,0,0,1.34-1,4.09,4.09,0,0,0,.88-1.35l2.86.79a7.26,7.26,0,0,1-1.34,2,8.8,8.8,0,0,1-2,1.56,10,10,0,0,1-2.46,1A10.16,10.16,0,0,1,119.56,68.16Zm6.73-11.5a7.15,7.15,0,0,0-.7-2.58,7,7,0,0,0-1.46-2,6.81,6.81,0,0,0-2-1.3,6.8,6.8,0,0,0-5,0,6.5,6.5,0,0,0-2,1.32,6.64,6.64,0,0,0-1.42,2,7.16,7.16,0,0,0-.66,2.56Z"/><path class="cls-1" d="M141.14,68.16a8.59,8.59,0,0,1-3.76-.83,9.23,9.23,0,0,1-3-2.21,10.17,10.17,0,0,1-1.94-3.24,11,11,0,0,1-.69-3.87,11.66,11.66,0,0,1,.65-3.93,10.27,10.27,0,0,1,1.85-3.25,8.65,8.65,0,0,1,2.82-2.2,8,8,0,0,1,3.59-.81,7.47,7.47,0,0,1,4.23,1.24,9.83,9.83,0,0,1,3,3V40.34h3.3V63.72c0,.78.36,1.18,1.06,1.21v2.85l-.73.12-.59,0a2.65,2.65,0,0,1-1.8-.58,2,2,0,0,1-.72-1.41l-.07-1.84a8.23,8.23,0,0,1-3.1,3A8.37,8.37,0,0,1,141.14,68.16Zm.79-2.86a5.48,5.48,0,0,0,1.86-.34,6.73,6.73,0,0,0,1.8-.94,7,7,0,0,0,1.47-1.4,4.31,4.31,0,0,0,.81-1.72V55.26a6.4,6.4,0,0,0-1-1.78A8.45,8.45,0,0,0,145.33,52a7.37,7.37,0,0,0-1.81-1,5.36,5.36,0,0,0-1.89-.36,5.51,5.51,0,0,0-2.65.62A6.36,6.36,0,0,0,137,53a7.38,7.38,0,0,0-1.3,2.37,8.49,8.49,0,0,0-.45,2.73,7.6,7.6,0,0,0,.52,2.8,7.32,7.32,0,0,0,1.43,2.31,6.9,6.9,0,0,0,2.13,1.56A6,6,0,0,0,141.93,65.3Z"/><path class="cls-1" d="M176.25,68.16A8,8,0,0,1,172.08,67a8.51,8.51,0,0,1-3-2.93v3.68h-2.93V40.34h3.3V52.07A10.19,10.19,0,0,1,172.53,49a8.13,8.13,0,0,1,7.86-.3A8.91,8.91,0,0,1,183.15,51a10.31,10.31,0,0,1,1.77,3.27,12.08,12.08,0,0,1,.62,3.82,10.65,10.65,0,0,1-.72,3.91,10,10,0,0,1-1.95,3.21,9.25,9.25,0,0,1-3,2.18A8.49,8.49,0,0,1,176.25,68.16Zm-.83-2.86a6.15,6.15,0,0,0,2.71-.6,7,7,0,0,0,2.15-1.61,7.47,7.47,0,0,0,1.39-2.32,7.75,7.75,0,0,0,.48-2.72,8.1,8.1,0,0,0-.47-2.77,7.58,7.58,0,0,0-1.31-2.35,6.7,6.7,0,0,0-2-1.63,5.47,5.47,0,0,0-2.61-.62,5.34,5.34,0,0,0-2,.37,7.49,7.49,0,0,0-3.17,2.45,10.93,10.93,0,0,0-1.08,1.76v5.68a4.16,4.16,0,0,0,.81,1.73A6.6,6.6,0,0,0,171.76,64a7.29,7.29,0,0,0,1.8.92A5.48,5.48,0,0,0,175.42,65.3Z"/><path class="cls-1" d="M189.75,73.16a15.28,15.28,0,0,0,1.8.11,1.4,1.4,0,0,0,.64-.15,2,2,0,0,0,.68-.71,11.58,11.58,0,0,0,.86-1.66c.33-.72.73-1.71,1.21-3l-8.31-19.62h3.42l6.69,16.65,6.09-16.65H206l-9.62,24.78a4.91,4.91,0,0,1-2,2.53,5.67,5.67,0,0,1-3,.77c-.27,0-.55,0-.82,0a5.77,5.77,0,0,1-.83-.15Z"/></g></g></svg>